# AST/ASF file generated using VICON BodyLanguage
# -----------------------------------------------
:version 1.10
:name VICON
:units
  mass 1.0
  length 0.45
  angle deg
:documentation
   .ast/.asf automatically generated from VICON data using
   VICON BodyBuilder and BodyLanguage model FoxedUp or BRILLIANT.MOD
:root
   order TX TY TZ RX RY RZ
   axis XYZ
   position 0 0 0  
   orientation 0 -0 0 
:bonedata
  begin
     id 1 
     name lhipjoint
     direction 0.432694 -0.693742 0.575759 
     length 2.19277 
     axis 0 -0 0  XYZ
  end
  begin
     id 2 
     name lfemur
     direction 0.34202 -0.939693 0  
     length 6.69022  
     axis 0 -0 20  XYZ
    dof rx ry rz
    limits (-160.0 20.0)
           (-70.0 70.0)
           (-60.0 70.0)
  end
  begin
     id 3 
     name ltibia
     direction 0.34202 -0.939693 0   
     length 6.50337   
     axis 0 -0 20   XYZ
    dof rx
    limits (-10.0 170.0)
  end
  begin
     id 4 
     name lfoot
     direction 0.158999 -0.435969 0.885805   
     length 2.70564   
     axis -90 -1.13533e-015 20   XYZ
    dof rx rz
    limits (-45.0 90.0)
           (-70.0 20.0)
  end
  begin
     id 5 
     name ltoes
     direction -0.00592919 0.00964381 0.999936   
     length 1.29929   
     axis -90 -1.13533e-015 20   XYZ
    dof rx
    limits (-90.0 20.0)
  end
  begin
     id 6 
     name rhipjoint
     direction -0.414359 -0.700339 0.581234   
     length 2.17212  
     axis 0 -0 0  XYZ 
  end
  begin
     id 7 
     name rfemur
     direction -0.34202 -0.939693 0   
     length 7.17659   
     axis 0 -0 -20   XYZ
    dof rx ry rz
    limits (-160.0 20.0)
           (-70.0 70.0)
           (-70.0 60.0)
  end
  begin
     id 8 
     name rtibia
     direction -0.34202 -0.939693 0   
     length 6.36669   
     axis 0 -0 -20   XYZ
    dof rx
    limits (-10.0 170.0)
 end
 begin
     id 9 
     name rfoot
     direction -0.137064 -0.37658 0.916188   
     length 2.22351  
     axis -90 1.13533e-015 -20   XYZ
    dof rx rz
    limits (-45.0 90.0)
           (-20.0 70.0)
  end
  begin
     id 10 
     name rtoes
     direction -0.000784077 -0.00289101 0.999996   
     length 1.09522   
     axis -90 1.13533e-015 -20   XYZ
    dof rx
    limits (-90.0 20.0)
  end
  begin
     id 11 
     name lowerback
     direction -0.0176242 0.984912 -0.172157   
     length 1.65301   
     axis 0 -0 0   XYZ
    dof rx ry rz
    limits (-20.0 45.0)
           (-30.0 30.0)
           (-30.0 30.0)
  end
  begin
     id 12 
     name upperback
     direction -0.00218128 0.998776 -0.0494072   
     length 1.67776   
     axis 0 -0 0   XYZ
    dof rx ry rz
    limits (-20.0 45.0)
           (-30.0 30.0)
           (-30.0 30.0)
  end
  begin
     id 13 
     name thorax
     direction 0.00544186 0.999658 0.0255711   
     length 1.72293   
     axis 0 -0 0   XYZ
    dof rx ry rz
    limits (-20.0 45.0)
           (-30.0 30.0)
           (-30.0 30.0)
  end
  begin
     id 14 
     name lowerneck
     direction -0.105325 0.983841 0.144785   
     length 2.14226   
     axis 0 -0 0   XYZ
    dof rx ry rz
    limits (-20.0 45.0)
           (-30.0 30.0)
           (-30.0 30.0)
  end
  begin
     id 15 
     name upperneck
     direction 0.0547957 0.988053 -0.144041   
     length 2.17508   
     axis 0 -0 0   XYZ
    dof rx ry rz
    limits (-20.0 45.0)
           (-30.0 30.0)
           (-30.0 30.0)
  end
  begin
     id 16
     name head
     direction 0.0247488 0.997534 -0.0656813  
     length 2.20048  
     axis 0 -0 0   XYZ
    dof rx ry rz
    limits (-20.0 45.0)
           (-30.0 30.0)
           (-30.0 30.0)
  end
  begin
     id 17 
     name lclavicle
     direction 0.820559 0.567247 -0.0701026  
     length 4.09615  
     axis 0 -0 0   XYZ
    dof ry rz
    limits (-20.0 10.0)
           (0.0 20.0)
  end
  begin
     id 18 
     name lhumerus
     direction 0.999977 -0.0067566 -9.96392e-005   
     length 4.59333   
     axis -180 -30 -90   XYZ
    dof rx ry rz
    limits (-60.0 90.0)
           (-90.0 90.0)
           (-90.0 90.0)
  end
  begin
     id 19
     name lradius
     direction 1 -4.48982e-011 -2.53425e-027   
     length 2.81151   
     axis -180 -30 -90   XYZ
    dof rx
    limits (-10.0 170.0)
  end
  begin
     id 20
     name lwrist
     direction 1 -4.48939e-011 -7.39254e-028   
     length 1.40576   
     axis 2.56395e-016 90 90   XYZ
    dof ry
    limits (-180.0 0.0)
 end
  begin
     id 21 
     name lhand
     direction 1 -4.48939e-011 -1.47851e-027   
     length 0.895651   
     axis 9.43423e-016 90 90   XYZ
    dof rx rz
    limits (-90.0 90.0)
           (-45.0 45.0)
  end
  begin
     id 22 
     name lfingers
     direction 1 -4.48978e-011 -2.95702e-027   
     length 0.722097   
     axis 1.88685e-015 90 90   XYZ
    dof rx
    limits (0.0 90.0)
  end
  begin
     id 23
     name lthumb
     direction 0.707107 -6.34931e-011 0.707107   
     length 1.03679   
     axis -90 45 -9.86935e-015   XYZ
    dof rx rz
    limits (-45.0 45.0)
           (-45.0 45.0)
  end
  begin
     id 24 
     name rclavicle
     direction -0.831414 0.553102 -0.0531864   
     length 4.24872  
     axis 0 -0 0   XYZ 
    dof ry rz
    limits (-10.0 20.0)
           (-20.0 0.0)
  end
  begin
     id 25 
     name rhumerus
     direction -0.999916 -0.000939607 0.0129331  
     length 4.74834   
     axis -180 30 90   XYZ
    dof rx ry rz
    limits (-90.0 60.0)
           (-90.0 90.0)
           (-90.0 90.0)
  end
  begin
     id 26 
     name rradius
     direction -1 -4.48956e-011 -1.31752e-027   
     length 2.79907   
     axis -180 30 90   XYZ
    dof rx
    limits (-10.0 170.0)
  end
  begin
     id 27 
     name rwrist
     direction -1 -4.4897e-011 -7.39254e-028   
     length 1.39954   
     axis 2.56395e-016 -90 -90   XYZ
    dof ry
    limits (-180.0 0.0)
  end
  begin
     id 28
     name rhand
     direction -0.999997 -0.00250697 0.000800838   
     length 0.953304   
     axis 9.43423e-016 -90 -90   XYZ
    dof rx rz
    limits (-90.0 90.0)
           (-45.0 45.0)
  end
  begin
     id 29
     name rfingers
     direction -1 -4.48954e-011 -2.95702e-027   
     length 0.763342   
     axis 1.88685e-015 -90 -90   XYZ
    dof rx
    limits (0.0 90.0)
  end
  begin
     id 30
     name rthumb
     direction -0.709701 -0.00217037 0.7045   
     length 1.10115   
     axis -90 -45 9.86935e-015   XYZ
    dof rx rz
    limits (-45.0 45.0)
           (-45.0 45.0)
  end
:hierarchy
  begin
    root lhipjoint rhipjoint lowerback
    lhipjoint lfemur
    lfemur ltibia
    ltibia lfoot
    lfoot ltoes
    rhipjoint rfemur
    rfemur rtibia
    rtibia rfoot
    rfoot rtoes
    lowerback upperback
    upperback thorax
    thorax lowerneck lclavicle rclavicle
    lowerneck upperneck
    upperneck head
    lclavicle lhumerus
    lhumerus lradius
    lradius lwrist
    lwrist lhand lthumb
    lhand lfingers
    rclavicle rhumerus
    rhumerus rradius
    rradius rwrist
    rwrist rhand rthumb
    rhand rfingers
  end

#!OML:ASF G:\ViconDB\ViconDB\414\test\team2\shane.ASF
:FULLY-SPECIFIED
:DEGREES
1
root 8.08892 16.2143 -28.3495 -1.79938 14.7013 -5.23267
lowerback 12.6616 -1.73722 -1.21536
upperback 3.75942 -2.37622 1.26155
thorax -3.04372 -1.17195 2.35468
lowerneck -17.4514 -5.43038 -9.55112
upperneck 18.8419 -7.98475 13.4184
head 9.81412 -2.97776 5.19871
rclavicle 3.97569e-014 1.63003e-014
rhumerus -36.8703 7.87677 -87.1605
rradius 34.4185
rwrist 38.1373
rhand -31.795 -12.6587
rfingers 7.12502
rthumb -5.05083 -42.5785
lclavicle 3.97569e-014 1.63003e-014
lhumerus -30.7864 -34.8991 103.819
lradius 38.3143
lwrist -10.4102
lhand -45.7861 8.23242
lfingers 7.12502
lthumb -18.54 37.3689
rfemur -15.769 -15.5396 12.5888
rtibia 53.8652
rfoot -23.2222 -0.960298
rtoes -12.7577
lfemur 3.9036 12.9456 -6.95138
ltibia 31.7282
lfoot -40.0374 -3.42741
ltoes -2.00348
2
root 8.10143 16.2203 -28.2563 -1.48622 14.8348 -5.26585
lowerback 12.7839 -1.90992 -1.41457
upperback 3.73902 -2.62644 1.34792
thorax -3.10582 -1.29499 2.59949
lowerneck -17.4216 -5.33213 -9.72284
upperneck 18.9818 -7.8558 13.5836
head 9.8554 -2.91244 5.3132
rclavicle -1.31198e-014 -7.95139e-016
rhumerus -37.6896 7.11793 -86.1983
rradius 33.8278
rwrist 38.6772
rhand -31.7831 -12.5594
rfingers 7.12502
rthumb -5.0393 -42.4794
lclavicle -1.31198e-014 -7.95139e-016
lhumerus -29.7358 -34.299 103.535
lradius 39.3312
lwrist -10.7293
lhand -45.6931 8.22044
lfingers 7.12502
lthumb -18.4505 37.3654
rfemur -17.3661 -16.5327 13.1222
rtibia 54.9978
rfoot -23.0944 -0.552933
rtoes -12.6857
lfemur 4.24496 12.7026 -6.93401
ltibia 30.9626
lfoot -39.9507 -3.31348
ltoes -2.09734
3
root 8.1148 16.2198 -28.1586 -1.23368 14.9646 -5.25466
lowerback 13.0681 -2.08335 -1.71501
upperback 3.68307 -2.88919 1.51301
thorax -3.28023 -1.42169 2.99523
lowerneck -17.4491 -5.20848 -9.92063
upperneck 19.1658 -7.63952 13.564
head 9.90216 -2.8254 5.37878
rclavicle 1.58034e-014 -2.0276e-014
rhumerus -38.6388 6.62773 -85.2154
rradius 33.3589
rwrist 38.5277
rhand -31.1445 -12.3966
rfingers 7.12502
rthumb -4.42265 -42.3305
lclavicle 1.58034e-014 -2.0276e-014
lhumerus -28.7113 -33.2698 103.437
lradius 40.2021
lwrist -11.5515
lhand -46.6019 8.43798
lfingers 7.12502
lthumb -19.3245 37.4978
rfemur -18.8419 -17.4952 13.6441
rtibia 55.9191
rfoot -23.001 -0.439955
rtoes -12.8889
lfemur 4.67456 12.8464 -6.81289
ltibia 30.2063
lfoot -39.9043 -3.57933
ltoes -2.22484
4
root 8.12122 16.2265 -28.055 -0.83506 15.2593 -5.39665
lowerback 13.1263 -2.32989 -1.69601
upperback 3.59994 -3.21303 1.50618
thorax -3.38009 -1.57958 3.03193
lowerneck -17.4336 -5.00819 -9.47072
upperneck 19.3279 -7.43541 13.2918
head 9.89772 -2.72397 5.23674
rclavicle 2.95195e-014 -1.59028e-015
rhumerus -39.6139 5.51849 -84.31
rradius 32.7735
rwrist 38.5814
rhand -31.3116 -11.7005
rfingers 7.12502
rthumb -4.58398 -41.6309
lclavicle 2.95195e-014 -1.59028e-015
lhumerus -27.9859 -32.661 103.098
lradius 41.5557
lwrist -11.6902
lhand -47.2681 8.99051
lfingers 7.12502
lthumb -19.965 37.9849
rfemur -20.5123 -18.301 14.4573
rtibia 56.7628
rfoot -22.935 -0.37677
rtoes -12.8231
lfemur 4.87786 12.8771 -6.56594
ltibia 29.3893
lfoot -39.7506 -3.81427
ltoes -2.41542
5
root 8.13409 16.2259 -27.9427 -0.511268 15.3796 -5.35854
lowerback 13.3729 -2.52017 -2.06591
upperback 3.49014 -3.50744 1.70771
thorax -3.57444 -1.71946 3.51391
lowerneck -17.4496 -4.86919 -9.80719
upperneck 19.5662 -7.18747 13.3663
head 9.96686 -2.62309 5.36767
rclavicle 4.37326e-015 -1.23246e-014
rhumerus -40.6972 4.96924 -83.0788
rradius 32.0969
rwrist 39.4904
rhand -30.8902 -11.4716
rfingers 7.12502
rthumb -4.17714 -41.4104
lclavicle 4.37326e-015 -1.23246e-014
lhumerus -27.3942 -31.4824 103.209
lradius 43.0177
lwrist -12.1011
lhand -47.015 8.55987
lfingers 7.12502
lthumb -19.7217 37.5794
rfemur -22.0616 -19.0054 15.0291
rtibia 57.4826
rfoot -22.9535 -0.22194
rtoes -12.7295
lfemur 5.34658 12.645 -6.56956
ltibia 28.5026
lfoot -39.461 -3.93351
ltoes -2.25243
6
root 8.14562 16.226 -27.8233 -0.105651 15.463 -5.27951
lowerback 13.3799 -2.73172 -2.3275
upperback 3.43724 -3.82071 1.75112
thorax -3.58986 -1.87269 3.75712
lowerneck -17.3472 -4.64142 -9.72277
upperneck 19.5776 -6.88108 13.2951
head 9.90322 -2.48655 5.37325
rclavicle -3.61788e-014 1.55052e-014
rhumerus -41.713 4.06832 -81.7859
rradius 31.2444
rwrist 41.3244
rhand -30.9151 -11.3393
rfingers 7.12502
rthumb -4.20118 -41.2776
lclavicle -3.61788e-014 1.55052e-014
lhumerus -26.838 -30.3424 103.06
lradius 44.8391
lwrist -12.0063
lhand -47.1565 7.78946
lfingers 7.12502
lthumb -19.8577 36.795
rfemur -23.686 -19.5184 15.6129
rtibia 58.0726
rfoot -23.1809 -0.0673855
rtoes -13.7077
lfemur 5.85473 12.572 -6.56205
ltibia 27.5611
lfoot -39.2091 -4.23035
ltoes -2.02189
7
root 8.14701 16.2284 -27.7001 0.3664 15.7807 -5.25199
lowerback 13.7156 -2.95681 -2.77227
upperback 3.18302 -4.17825 1.92107
thorax -3.96509 -2.03428 4.27471
lowerneck -17.1672 -4.46473 -9.72405
upperneck 19.6283 -6.63757 13.2409
head 9.85129 -2.38583 5.39169
rclavicle -4.73108e-014 7.95139e-015
rhumerus -43.0816 3.39747 -80.576
rradius 30.6327
rwrist 42.3171
rhand -30.9013 -11.8264
rfingers 7.12502
rthumb -4.18781 -41.765
lclavicle -4.73108e-014 7.95139e-015
lhumerus -26.6392 -29.3508 103.259
lradius 46.851
lwrist -11.8932
lhand -47.3823 8.42526
lfingers 7.12502
lthumb -20.0748 37.4082
rfemur -25.3242 -20.0005 16.334
rtibia 58.5517
rfoot -23.2772 0.0300128
rtoes -13.3542
lfemur 6.18961 12.8352 -6.32308
ltibia 26.5737
lfoot -39.0188 -4.77258
ltoes -2.18548
8
root 8.16212 16.2234 -27.569 0.780114 15.8118 -5.26739
lowerback 13.6961 -3.11379 -2.95778
upperback 3.14298 -4.40471 2.06887
thorax -3.9494 -2.14509 4.57051
lowerneck -17.2344 -4.29259 -9.56416
upperneck 19.6493 -6.36857 12.9618
head 9.81848 -2.27626 5.30075
rclavicle -1.82882e-014 -2.14687e-014
rhumerus -44.1888 2.8633 -79.3084
rradius 30.1051
rwrist 42.2243
rhand -30.5554 -11.1587
rfingers 7.12502
rthumb -3.8538 -41.1036
lclavicle -1.82882e-014 -2.14687e-014
lhumerus -26.1705 -28.3303 103.304
lradius 48.7384
lwrist -12.865
lhand -47.2658 7.79137
lfingers 7.12502
lthumb -19.9628 36.786
rfemur -26.9167 -20.2146 17.0705
rtibia 58.9265
rfoot -23.4012 0.0554085
rtoes -13.6419
lfemur 6.68502 12.6669 -6.28026
ltibia 25.5822
lfoot -38.7943 -4.55413
ltoes -2.08043
9
root 8.16782 16.2074 -27.4344 1.20567 15.9111 -5.16805
lowerback 13.6475 -3.28102 -3.44561
upperback 3.15471 -4.68355 2.27338
thorax -3.82496 -2.28427 5.09903
lowerneck -17.2799 -4.17882 -9.78379
upperneck 19.6342 -6.1438 12.9697
head 9.7989 -2.18723 5.37383
rclavicle 1.5704e-014 -3.02153e-014
rhumerus -45.2877 2.55666 -78.0469
rradius 29.6389
rwrist 42.1195
rhand -30.4289 -11.3671
rfingers 7.12502
rthumb -3.73166 -41.3142
lclavicle 1.5704e-014 -3.02153e-014
lhumerus -25.6472 -27.5562 103.478
lradius 50.946
lwrist -12.7114
lhand -47.4477 7.63711
lfingers 7.12502
lthumb -20.1377 36.6134
rfemur -28.4369 -20.6573 17.6759
rtibia 59.2233
rfoot -23.6047 0.35731
rtoes -13.8149
lfemur 7.23257 12.6631 -6.24172
ltibia 24.5468
lfoot -38.583 -4.23801
ltoes -2.15014
10
root 8.17212 16.1945 -27.2903 1.63484 15.9817 -5.12817
lowerback 13.6084 -3.42883 -3.67097
upperback 3.10869 -4.90734 2.33242
thorax -3.80256 -2.39384 5.32086
lowerneck -17.2778 -4.04376 -9.69147
upperneck 19.5607 -5.97205 12.9695
head 9.7469 -2.10189 5.37985
rclavicle 6.1822e-014 -8.74653e-015
rhumerus -46.5557 1.49801 -76.5361
rradius 29.059
rwrist 42.8972
rhand -30.2984 -11.3183
rfingers 7.12502
rthumb -3.60562 -41.2676
lclavicle 6.1822e-014 -8.74653e-015
lhumerus -25.3681 -27.1935 103.663
lradius 53.4
lwrist -12.3294
lhand -47.4872 7.89901
lfingers 7.12502
lthumb -20.1756 36.8713
rfemur -29.899 -20.7309 18.3854
rtibia 59.4442
rfoot -23.6974 0.287799
rtoes -13.4894
lfemur 7.76166 13.1162 -5.95937
ltibia 23.5792
lfoot -38.5086 -4.81696
ltoes -2.41418
11
root 8.17619 16.1794 -27.1446 2.00407 15.9031 -5.13972
lowerback 13.5627 -3.54581 -3.94889
upperback 3.14312 -5.09312 2.46884
thorax -3.68168 -2.48964 5.64298
lowerneck -17.2505 -3.91843 -9.87541
upperneck 19.3788 -5.76946 13.1418
head 9.66261 -2.00722 5.49776
rclavicle 5.66536e-014 1.35174e-014
rhumerus -47.7287 0.626908 -74.8775
rradius 28.3405
rwrist 44.4921
rhand -30.4803 -11.3577
rfingers 7.12502
rthumb -3.78128 -41.3039
lclavicle 5.66536e-014 1.35174e-014
lhumerus -24.8956 -26.8609 103.843
lradius 55.761
lwrist -12.5404
lhand -47.5793 7.85651
lfingers 7.12502
lthumb -20.2641 36.8194
rfemur -31.3329 -20.681 19.1398
rtibia 59.6281
rfoot -23.8777 0.349327
rtoes -13.6636
lfemur 8.31749 13.6207 -5.63732
ltibia 22.6321
lfoot -38.2708 -5.06285
ltoes -2.57813
12
root 8.18186 16.1668 -27.0136 2.73731 16.5921 -4.83291
lowerback 13.533 -3.89154 -4.24993
upperback 3.05878 -5.5886 2.5305
thorax -3.65729 -2.73278 5.95032
lowerneck -17.2869 -3.82984 -9.86364
upperneck 19.1536 -5.62687 13.1597
head 9.57216 -1.93983 5.51445
rclavicle 2.96189e-014 -2.3059e-014
rhumerus -48.8032 -0.585337 -73.0252
rradius 27.5458
rwrist 45.7412
rhand -30.7041 -11.3729
rfingers 7.12502
rthumb -3.99738 -41.3152
lclavicle 2.96189e-014 -2.3059e-014
lhumerus -24.3555 -26.9887 103.879
lradius 58.218
lwrist -12.7985
lhand -48.4347 8.55902
lfingers 7.12502
lthumb -21.086 37.4325
rfemur -33.092 -21.4037 19.6117
rtibia 59.7694
rfoot -23.9972 0.353956
rtoes -13.5669
lfemur 8.28483 12.7833 -6.08222
ltibia 21.6834
lfoot -37.6922 -4.41903
ltoes -2.5089
13
root 8.18669 16.1384 -26.8649 3.19257 16.5547 -4.76407
lowerback 13.3907 -4.00945 -4.49718
upperback 3.14174 -5.76787 2.65176
thorax -3.43047 -2.83188 6.22364
lowerneck -17.3728 -3.743 -9.9571
upperneck 18.9336 -5.4519 13.1677
head 9.49124 -1.86441 5.55052
rclavicle -1.90833e-014 -3.97569e-016
rhumerus -49.9304 -1.12577 -71.5154
rradius 27.0736
rwrist 45.8346
rhand -30.7544 -11.4356
rfingers 7.12502
rthumb -4.04594 -41.377
lclavicle -1.90833e-014 -3.97569e-016
lhumerus -23.5884 -27.0398 103.893
lradius 60.5841
lwrist -13.7479
lhand -48.2404 8.82158
lfingers 7.12502
lthumb -20.8994 37.7158
rfemur -34.5008 -21.3822 20.2832
rtibia 59.8641
rfoot -23.9908 0.570694
rtoes -13.6964
lfemur 8.83684 13.1547 -5.87469
ltibia 20.7511
lfoot -37.4556 -4.77981
ltoes -2.86383
14
root 8.19787 16.1117 -26.7188 3.67941 16.5721 -4.60979
lowerback 13.2588 -4.10989 -4.5878
upperback 3.20395 -5.90772 2.64697
thorax -3.26499 -2.90899 6.27122
lowerneck -17.2687 -3.70497 -9.99201
upperneck 18.5848 -5.39173 13.2931
head 9.34846 -1.8335 5.5983
rclavicle 3.33958e-014 -1.03368e-014
rhumerus -51.0612 -2.20165 -69.9483
rradius 26.5014
rwrist 45.1643
rhand -30.4486 -11.3912
rfingers 7.12502
rthumb -3.75069 -41.3379
lclavicle 3.33958e-014 -1.03368e-014
lhumerus -22.9977 -27.3039 103.753
lradius 63.2409
lwrist -14.2293
lhand -47.9363 8.04541
lfingers 7.12502
lthumb -20.6072 36.9715
rfemur -35.9423 -21.509 20.8144
rtibia 59.9264
rfoot -23.9527 0.936805
rtoes -14.1231
lfemur 9.28729 12.8678 -6.01293
ltibia 19.8644
lfoot -37.2175 -4.24428
ltoes -3.44058
